<?xml version="1.0" encoding="UTF-8" standalone="no"?>
<!-- Created with Inkscape (http://www.inkscape.org/) -->
<svg
   xmlns:dc="http://purl.org/dc/elements/1.1/"
   xmlns:cc="http://creativecommons.org/ns#"
   xmlns:rdf="http://www.w3.org/1999/02/22-rdf-syntax-ns#"
   xmlns:svg="http://www.w3.org/2000/svg"
   xmlns="http://www.w3.org/2000/svg"
   xmlns:sodipodi="http://sodipodi.sourceforge.net/DTD/sodipodi-0.dtd"
   xmlns:inkscape="http://www.inkscape.org/namespaces/inkscape"
   width="346.8295"
   height="346.8295"
   id="svg2"
   sodipodi:version="0.32"
   inkscape:version="0.46"
   sodipodi:docname="active_noconnections.svg"
   inkscape:output_extension="org.inkscape.output.svg.inkscape"
   version="1.0">
  <defs
     id="defs4">
    <inkscape:perspective
       id="perspective3283"
       inkscape:persp3d-origin="361.79831 : 320.04952 : 1"
       inkscape:vp_z="-10.248931 : 495.44322 : 1"
       inkscape:vp_y="-6.1230318e-14 : 1000 : 0"
       inkscape:vp_x="733.84555 : 495.44322 : 1"
       sodipodi:type="inkscape:persp3d" />
    <inkscape:perspective
       sodipodi:type="inkscape:persp3d"
       inkscape:vp_x="39.655172 : 498.59488 : 1"
       inkscape:vp_y="6.1230318e-14 : 1000 : 0"
       inkscape:vp_z="783.74965 : 498.59488 : 1"
       inkscape:persp3d-origin="411.70241 : 323.20118 : 1"
       id="perspective10" />
  </defs>
  <sodipodi:namedview
     id="base"
     pagecolor="#ffffff"
     bordercolor="#666666"
     borderopacity="1.0"
     gridtolerance="10000"
     guidetolerance="10"
     objecttolerance="10"
     inkscape:pageopacity="0.0"
     inkscape:pageshadow="2"
     inkscape:zoom="1.4908955"
     inkscape:cx="164.89273"
     inkscape:cy="175.54536"
     inkscape:document-units="px"
     inkscape:current-layer="layer1"
     showgrid="false"
     inkscape:window-width="1451"
     inkscape:window-height="1012"
     inkscape:window-x="266"
     inkscape:window-y="70"
     showguides="true">
    <inkscape:grid
       type="xygrid"
       id="grid3305"
       visible="true"
       enabled="true" />
  </sodipodi:namedview>
  <metadata
     id="metadata7">
    <rdf:RDF>
      <cc:Work
         rdf:about="">
        <dc:format>image/svg+xml</dc:format>
        <dc:type
           rdf:resource="http://purl.org/dc/dcmitype/StillImage" />
      </cc:Work>
    </rdf:RDF>
  </metadata>
  <g
     inkscape:label="Layer 1"
     inkscape:groupmode="layer"
     id="layer1"
     transform="translate(-20.88226,-685.99656)">
    <g
       id="g3392">
      <path
         transform="matrix(0.6548679,0.6548679,-0.6775288,0.6775288,270.66944,276.0808)"
         d="M 567.24138,486.84494 A 180.17241,177.58621 0 1 1 206.89656,486.84494 A 180.17241,177.58621 0 1 1 567.24138,486.84494 z"
         sodipodi:ry="177.58621"
         sodipodi:rx="180.17241"
         sodipodi:cy="486.84494"
         sodipodi:cx="387.06897"
         id="path2393"
         style="fill:#ff7700;fill-opacity:1;fill-rule:evenodd;stroke:#000000;stroke-width:10.45051193;stroke-linecap:butt;stroke-linejoin:miter;stroke-miterlimit:4;stroke-dasharray:none;stroke-opacity:1"
         sodipodi:type="arc" />
      <path
         transform="matrix(0.6385968,0.6385968,-0.9257094,0.9257094,443.21596,272.30577)"
         d="M 325.29586,423.30941 C 323.12957,424.38362 321.19946,421.86442 321.04575,419.95161 C 320.73901,416.1346 324.54615,413.51323 328.04804,413.67678 C 333.41475,413.92743 336.89582,419.26076 336.34758,424.32356 C 335.59954,431.23135 328.67189,435.60468 322.05631,434.64781 C 313.60791,433.42584 308.33047,424.87723 309.70734,416.71206 C 311.39186,406.72252 321.57444,400.5352 331.28758,402.33838 C 342.81884,404.47908 349.91933,416.30298 347.68598,427.5631 C 345.09298,440.63652 331.62325,448.65226 318.81677,445.98622 C 304.20084,442.94348 295.26845,427.82491 298.36894,413.47252 C 301.85964,397.31381 318.62915,387.46378 334.52712,390.99998 C 352.22883,394.93738 362.99722,413.35933 359.02438,430.80265 C 357.79889,436.18337 355.26941,441.23878 351.72414,445.46562"
         sodipodi:t0="0.058259577"
         sodipodi:argument="-18.098627"
         sodipodi:radius="35.376354"
         sodipodi:revolution="3"
         sodipodi:expansion="1"
         sodipodi:cy="421.3277"
         sodipodi:cx="325.86206"
         id="path3165"
         style="fill:none;fill-rule:evenodd;stroke:#000000;stroke-width:7.24298525;stroke-linecap:round;stroke-linejoin:miter;stroke-miterlimit:4;stroke-dasharray:none;stroke-opacity:1"
         sodipodi:type="spiral" />
      <path
         transform="matrix(-0.6413594,-0.6413594,-0.880362,0.880362,762.41648,628.37055)"
         d="M 325.29586,423.30941 C 323.12957,424.38362 321.19946,421.86442 321.04575,419.95161 C 320.73901,416.1346 324.54615,413.51323 328.04804,413.67678 C 333.41475,413.92743 336.89582,419.26076 336.34758,424.32356 C 335.59954,431.23135 328.67189,435.60468 322.05631,434.64781 C 313.60791,433.42584 308.33047,424.87723 309.70734,416.71206 C 311.39186,406.72252 321.57444,400.5352 331.28758,402.33838 C 342.81884,404.47908 349.91933,416.30298 347.68598,427.5631 C 345.09298,440.63652 331.62325,448.65226 318.81677,445.98622 C 304.20084,442.94348 295.26845,427.82491 298.36894,413.47252 C 301.85964,397.31381 318.62915,387.46378 334.52712,390.99998 C 352.22883,394.93738 362.99722,413.35933 359.02438,430.80265 C 357.79889,436.18337 355.26941,441.23878 351.72414,445.46562"
         sodipodi:t0="0.058259577"
         sodipodi:argument="-18.098627"
         sodipodi:radius="35.376354"
         sodipodi:revolution="3"
         sodipodi:expansion="1"
         sodipodi:cy="421.3277"
         sodipodi:cx="325.86206"
         id="path3167"
         style="fill:none;fill-rule:evenodd;stroke:#000000;stroke-width:7.41117191;stroke-linecap:round;stroke-linejoin:miter;stroke-miterlimit:4;stroke-dasharray:none;stroke-opacity:1"
         sodipodi:type="spiral" />
      <path
         id="path3225"
         d="M 90.395947,858.3077 C 104.79654,956.81536 206.92588,960.81978 206.92588,960.81978"
         style="fill:none;fill-rule:evenodd;stroke:#000000;stroke-width:9.84449196;stroke-linecap:round;stroke-linejoin:miter;stroke-miterlimit:4;stroke-dasharray:none;stroke-opacity:1" />
    </g>
  </g>
</svg>
