<?xml version="1.0" encoding="UTF-8" standalone="no"?>
<!-- Created with Inkscape (http://www.inkscape.org/) -->

<svg
   xmlns:osb="http://www.openswatchbook.org/uri/2009/osb"
   xmlns:dc="http://purl.org/dc/elements/1.1/"
   xmlns:cc="http://creativecommons.org/ns#"
   xmlns:rdf="http://www.w3.org/1999/02/22-rdf-syntax-ns#"
   xmlns:svg="http://www.w3.org/2000/svg"
   xmlns="http://www.w3.org/2000/svg"
   xmlns:xlink="http://www.w3.org/1999/xlink"
   xmlns:sodipodi="http://sodipodi.sourceforge.net/DTD/sodipodi-0.dtd"
   xmlns:inkscape="http://www.inkscape.org/namespaces/inkscape"
   width="414.67957"
   height="413.19669"
   id="svg2"
   sodipodi:version="0.32"
   inkscape:version="0.48.1 "
   sodipodi:docname="active_connections.svg"
   inkscape:output_extension="org.inkscape.output.svg.inkscape"
   version="1.0"
   inkscape:export-filename="C:\Users\graves\Projects\iTCH\STiTCH\icons\active_connections.png"
   inkscape:export-xdpi="10.45507"
   inkscape:export-ydpi="10.45507">
  <defs
     id="defs4">
    <linearGradient
       id="linearGradient5268">
      <stop
         style="stop-color:#808080;stop-opacity:1;"
         offset="0"
         id="stop5270" />
      <stop
         id="stop7350"
         offset="0.5"
         style="stop-color:#808080;stop-opacity:1;" />
      <stop
         style="stop-color:#ffffff;stop-opacity:1;"
         offset="1"
         id="stop5272" />
    </linearGradient>
    <linearGradient
       id="linearGradient5260">
      <stop
         style="stop-color:#808080;stop-opacity:1;"
         offset="0"
         id="stop5262" />
      <stop
         id="stop7332"
         offset="0.5"
         style="stop-color:#808080;stop-opacity:1;" />
      <stop
         style="stop-color:#ffffff;stop-opacity:1;"
         offset="1"
         id="stop5264" />
    </linearGradient>
    <linearGradient
       id="linearGradient5252">
      <stop
         style="stop-color:#808080;stop-opacity:1;"
         offset="0"
         id="stop5254" />
      <stop
         id="stop7344"
         offset="0.5"
         style="stop-color:#808080;stop-opacity:1;" />
      <stop
         style="stop-color:#ffffff;stop-opacity:1;"
         offset="1"
         id="stop5256" />
    </linearGradient>
    <linearGradient
       id="linearGradient5244">
      <stop
         style="stop-color:#808080;stop-opacity:1;"
         offset="0"
         id="stop5246" />
      <stop
         id="stop7338"
         offset="0.5"
         style="stop-color:#808080;stop-opacity:1;" />
      <stop
         style="stop-color:#ffffff;stop-opacity:1;"
         offset="1"
         id="stop5248" />
    </linearGradient>
    <linearGradient
       id="linearGradient3798"
       osb:paint="gradient">
      <stop
         style="stop-color:#ff7f00;stop-opacity:1;"
         offset="0"
         id="stop3800" />
      <stop
         id="stop5280"
         offset="0.5"
         style="stop-color:#ff7f00;stop-opacity:1;" />
      <stop
         style="stop-color:#ff9f41;stop-opacity:1;"
         offset="1"
         id="stop3802" />
    </linearGradient>
    <inkscape:perspective
       id="perspective3283"
       inkscape:persp3d-origin="361.79831 : 320.04952 : 1"
       inkscape:vp_z="-10.248931 : 495.44322 : 1"
       inkscape:vp_y="-6.1230318e-14 : 1000 : 0"
       inkscape:vp_x="733.84555 : 495.44322 : 1"
       sodipodi:type="inkscape:persp3d" />
    <inkscape:perspective
       sodipodi:type="inkscape:persp3d"
       inkscape:vp_x="39.655172 : 498.59488 : 1"
       inkscape:vp_y="6.1230318e-14 : 1000 : 0"
       inkscape:vp_z="783.74965 : 498.59488 : 1"
       inkscape:persp3d-origin="411.70241 : 323.20118 : 1"
       id="perspective10" />
    <linearGradient
       inkscape:collect="always"
       xlink:href="#linearGradient5244"
       id="linearGradient5250"
       x1="63.720097"
       y1="724.96881"
       x2="130.60617"
       y2="661.24872"
       gradientUnits="userSpaceOnUse" />
    <linearGradient
       inkscape:collect="always"
       xlink:href="#linearGradient5252"
       id="linearGradient5258"
       x1="329.51257"
       y1="987.7298"
       x2="390.63788"
       y2="921.9975"
       gradientUnits="userSpaceOnUse" />
    <linearGradient
       inkscape:collect="always"
       xlink:href="#linearGradient5260"
       id="linearGradient5266"
       x1="28.183167"
       y1="692.08569"
       x2="57.78878"
       y2="672.63428"
       gradientUnits="userSpaceOnUse" />
    <linearGradient
       inkscape:collect="always"
       xlink:href="#linearGradient5268"
       id="linearGradient5274"
       x1="360.43829"
       y1="1023.0483"
       x2="379.98285"
       y2="995.54803"
       gradientUnits="userSpaceOnUse" />
    <radialGradient
       inkscape:collect="always"
       xlink:href="#linearGradient3798"
       id="radialGradient5284"
       cx="388.0932"
       cy="489.85687"
       fx="388.0932"
       fy="489.85687"
       r="185.39767"
       gradientTransform="matrix(1,0,0,0.98605054,0,6.7912229)"
       gradientUnits="userSpaceOnUse" />
    <linearGradient
       inkscape:collect="always"
       xlink:href="#linearGradient5252"
       id="linearGradient7309"
       gradientUnits="userSpaceOnUse"
       x1="329.51257"
       y1="987.7298"
       x2="390.63788"
       y2="921.9975" />
    <linearGradient
       inkscape:collect="always"
       xlink:href="#linearGradient5260"
       id="linearGradient7330"
       x1="8.0610323"
       y1="722.26886"
       x2="59.130257"
       y2="672.63428"
       gradientUnits="userSpaceOnUse" />
    <linearGradient
       inkscape:collect="always"
       xlink:href="#linearGradient5244"
       id="linearGradient7336"
       x1="0.67074269"
       y1="792.71332"
       x2="130.60617"
       y2="661.91943"
       gradientUnits="userSpaceOnUse" />
    <linearGradient
       inkscape:collect="always"
       xlink:href="#linearGradient5252"
       id="linearGradient7342"
       x1="261.09732"
       y1="1052.7914"
       x2="391.30862"
       y2="921.32678"
       gradientUnits="userSpaceOnUse" />
    <linearGradient
       inkscape:collect="always"
       xlink:href="#linearGradient5268"
       id="linearGradient7348"
       x1="329.58435"
       y1="1045.1826"
       x2="379.3121"
       y2="994.87726"
       gradientUnits="userSpaceOnUse" />
  </defs>
  <sodipodi:namedview
     id="base"
     pagecolor="#ffffff"
     bordercolor="#666666"
     borderopacity="1.0"
     gridtolerance="10000"
     guidetolerance="10"
     objecttolerance="10"
     inkscape:pageopacity="0.0"
     inkscape:pageshadow="2"
     inkscape:zoom="1.4908955"
     inkscape:cx="151.47797"
     inkscape:cy="175.54536"
     inkscape:document-units="px"
     inkscape:current-layer="layer1"
     showgrid="false"
     inkscape:window-width="1451"
     inkscape:window-height="1012"
     inkscape:window-x="322"
     inkscape:window-y="6"
     showguides="true"
     inkscape:window-maximized="0">
    <inkscape:grid
       type="xygrid"
       id="grid3305"
       visible="true"
       enabled="true" />
  </sodipodi:namedview>
  <metadata
     id="metadata7">
    <rdf:RDF>
      <cc:Work
         rdf:about="">
        <dc:format>image/svg+xml</dc:format>
        <dc:type
           rdf:resource="http://purl.org/dc/dcmitype/StillImage" />
        <dc:title></dc:title>
      </cc:Work>
    </rdf:RDF>
  </metadata>
  <g
     inkscape:label="Layer 1"
     inkscape:groupmode="layer"
     id="layer1"
     transform="translate(-4.8031693e-6,-639.16549)">
    <g
       id="g7352">
      <path
         id="path3226"
         d="m 371.67939,998.77241 c 7.51636,7.51639 5.0886,22.17029 -5.44723,32.70609 -10.53584,10.5359 -25.18977,12.9636 -32.7061,5.4472 -0.23489,-0.2348 -0.45898,-0.4686 -0.67466,-0.7169 l 38.111,-38.111 c 0.2485,0.21547 0.48205,0.43977 0.71694,0.67466 z"
         style="fill:url(#linearGradient7348);fill-opacity:1.0;fill-rule:evenodd;stroke:#000000;stroke-width:7.87559319000000000;stroke-linecap:butt;stroke-linejoin:bevel;stroke-miterlimit:4;stroke-opacity:1;stroke-dasharray:none"
         inkscape:connector-curvature="0" />
      <path
         id="path2435"
         d="m 53.847116,680.89113 c -7.516355,-7.51635 -22.170266,-5.08859 -32.706103,5.44724 -10.535837,10.53584 -12.9636153,25.18977 -5.44724,32.70611 0.234892,0.23489 0.468659,0.45898 0.71695,0.67465 l 38.111,-38.111 c -0.215465,-0.2485 -0.439764,-0.48206 -0.674656,-0.71695 z"
         style="fill:url(#linearGradient7330);fill-opacity:1.0;fill-rule:evenodd;stroke:#000000;stroke-width:7.87559319000000000;stroke-linecap:butt;stroke-linejoin:bevel;stroke-miterlimit:4;stroke-opacity:1;stroke-dasharray:none"
         inkscape:connector-curvature="0" />
      <path
         transform="matrix(0.65486787,0.65486787,-0.6775288,0.6775288,270.66944,276.0808)"
         d="m 567.24138,486.84494 a 180.17241,177.58621 0 1 1 -360.34482,0 180.17241,177.58621 0 1 1 360.34482,0 z"
         sodipodi:ry="177.58621"
         sodipodi:rx="180.17241"
         sodipodi:cy="486.84494"
         sodipodi:cx="387.06897"
         id="path2393"
         style="fill:url(#radialGradient5284);fill-opacity:1;fill-rule:evenodd;stroke:#000000;stroke-width:10.45051193;stroke-linecap:butt;stroke-linejoin:miter;stroke-miterlimit:4;stroke-opacity:1;stroke-dasharray:none"
         sodipodi:type="arc" />
      <path
         transform="matrix(0.63859676,0.63859676,-0.92570937,0.92570937,443.21596,272.30577)"
         d="m 325.29586,423.30941 c -2.16629,1.07421 -4.0964,-1.44499 -4.25011,-3.3578 -0.30674,-3.81701 3.5004,-6.43838 7.00229,-6.27483 5.36671,0.25065 8.84778,5.58398 8.29954,10.64678 -0.74804,6.90779 -7.67569,11.28112 -14.29127,10.32425 -8.4484,-1.22197 -13.72584,-9.77058 -12.34897,-17.93575 1.68452,-9.98954 11.8671,-16.17686 21.58024,-14.37368 11.53126,2.1407 18.63175,13.9646 16.3984,25.22472 -2.593,13.07342 -16.06273,21.08916 -28.86921,18.42312 -14.61593,-3.04274 -23.54832,-18.16131 -20.44783,-32.5137 3.4907,-16.15871 20.26021,-26.00874 36.15818,-22.47254 17.70171,3.9374 28.4701,22.35935 24.49726,39.80267 -1.22549,5.38072 -3.75497,10.43613 -7.30024,14.66297"
         sodipodi:t0="0.058259577"
         sodipodi:argument="-18.098627"
         sodipodi:radius="35.376354"
         sodipodi:revolution="3"
         sodipodi:expansion="1"
         sodipodi:cy="421.3277"
         sodipodi:cx="325.86206"
         id="path3165"
         style="fill:none;stroke:#000000;stroke-width:7.24298525;stroke-linecap:round;stroke-linejoin:miter;stroke-miterlimit:4;stroke-opacity:1;stroke-dasharray:none"
         sodipodi:type="spiral" />
      <path
         transform="matrix(-0.64135942,-0.64135942,-0.88036205,0.88036205,762.41648,628.37055)"
         d="m 325.29586,423.30941 c -2.16629,1.07421 -4.0964,-1.44499 -4.25011,-3.3578 -0.30674,-3.81701 3.5004,-6.43838 7.00229,-6.27483 5.36671,0.25065 8.84778,5.58398 8.29954,10.64678 -0.74804,6.90779 -7.67569,11.28112 -14.29127,10.32425 -8.4484,-1.22197 -13.72584,-9.77058 -12.34897,-17.93575 1.68452,-9.98954 11.8671,-16.17686 21.58024,-14.37368 11.53126,2.1407 18.63175,13.9646 16.3984,25.22472 -2.593,13.07342 -16.06273,21.08916 -28.86921,18.42312 -14.61593,-3.04274 -23.54832,-18.16131 -20.44783,-32.5137 3.4907,-16.15871 20.26021,-26.00874 36.15818,-22.47254 17.70171,3.9374 28.4701,22.35935 24.49726,39.80267 -1.22549,5.38072 -3.75497,10.43613 -7.30024,14.66297"
         sodipodi:t0="0.058259577"
         sodipodi:argument="-18.098627"
         sodipodi:radius="35.376354"
         sodipodi:revolution="3"
         sodipodi:expansion="1"
         sodipodi:cy="421.3277"
         sodipodi:cx="325.86206"
         id="path3167"
         style="fill:none;stroke:#000000;stroke-width:7.41117191;stroke-linecap:round;stroke-linejoin:miter;stroke-miterlimit:4;stroke-opacity:1;stroke-dasharray:none"
         sodipodi:type="spiral" />
      <path
         id="path3225"
         d="M 90.395947,858.3077 C 104.79654,956.81536 206.92588,960.81978 206.92588,960.81978"
         style="fill:none;stroke:#000000;stroke-width:9.84449196;stroke-linecap:round;stroke-linejoin:miter;stroke-miterlimit:4;stroke-opacity:1;stroke-dasharray:none"
         inkscape:connector-curvature="0" />
      <path
         id="path2405"
         d="m 121.00077,677.96264 c 0.0993,-0.10006 0.19883,-0.19998 0.29858,-0.29973 54.33742,-54.33741 155.53108,-41.34357 225.87873,29.00408 70.34763,70.34765 83.34147,171.5413 29.00407,225.87871 l -2e-5,10e-6 c -0.0997,0.0997 -0.19966,0.19928 -0.29973,0.29858"
         style="fill:none;stroke:#000000;stroke-width:9.84449196;stroke-linecap:butt;stroke-linejoin:bevel;stroke-miterlimit:4;stroke-opacity:1;stroke-dasharray:none"
         inkscape:connector-curvature="0" />
      <path
         id="rect3299"
         d="M 114.49193,670.39479 C 99.103249,662.8934 77.703162,665.50716 57.334757,676.84063 L 14.629273,719.54611 C 3.0117129,740.42511 0.55746153,762.37702 8.767695,777.83805 L 20.084627,789.15498 126.66837,682.57123 114.49193,670.39479 z"
         style="fill:url(#linearGradient7336);fill-opacity:1.0;stroke:#000000;stroke-width:7.87559319000000000;stroke-linecap:round;stroke-linejoin:bevel;stroke-miterlimit:4;stroke-opacity:1;stroke-dasharray:none"
         inkscape:connector-curvature="0" />
      <path
         id="path2398"
         d="m 383.12455,937.87026 c 7.50138,15.38868 4.88762,36.78876 -6.44584,57.15717 l -42.70548,42.70547 c -20.87901,11.6176 -42.83091,14.0718 -58.29194,5.8616 l -11.31693,-11.3169 106.58375,-106.58378 12.17644,12.17644 z"
         style="fill:url(#linearGradient7342);fill-opacity:1.0;stroke:#000000;stroke-width:7.87559319000000000;stroke-linecap:round;stroke-linejoin:bevel;stroke-miterlimit:4;stroke-opacity:1;stroke-dasharray:none"
         inkscape:connector-curvature="0" />
    </g>
  </g>
</svg>
