<?xml version="1.0" encoding="UTF-8" standalone="no"?>
<!-- Created with Inkscape (http://www.inkscape.org/) -->

<svg
   xmlns:dc="http://purl.org/dc/elements/1.1/"
   xmlns:cc="http://creativecommons.org/ns#"
   xmlns:rdf="http://www.w3.org/1999/02/22-rdf-syntax-ns#"
   xmlns:svg="http://www.w3.org/2000/svg"
   xmlns="http://www.w3.org/2000/svg"
   xmlns:xlink="http://www.w3.org/1999/xlink"
   xmlns:sodipodi="http://sodipodi.sourceforge.net/DTD/sodipodi-0.dtd"
   xmlns:inkscape="http://www.inkscape.org/namespaces/inkscape"
   width="496.78"
   height="496.78"
   id="svg2"
   sodipodi:version="0.32"
   inkscape:version="0.48.1 "
   sodipodi:docname="banner.svg"
   inkscape:output_extension="org.inkscape.output.svg.inkscape"
   version="1.0">
  <defs
     id="defs4">
    <linearGradient
       id="linearGradient10055">
      <stop
         style="stop-color:#7f7f7f;stop-opacity:0.25098041;"
         offset="0"
         id="stop10057" />
      <stop
         id="stop10063"
         offset="0.5"
         style="stop-color:#7f7f7f;stop-opacity:0.25098041;" />
      <stop
         style="stop-color:#c0c0c0;stop-opacity:0.25098041;"
         offset="1"
         id="stop10059" />
    </linearGradient>
    <linearGradient
       id="linearGradient10045">
      <stop
         style="stop-color:#808080;stop-opacity:0.25098041;"
         offset="0"
         id="stop10047" />
      <stop
         id="stop10053"
         offset="0.5"
         style="stop-color:#808080;stop-opacity:0.25098041;" />
      <stop
         style="stop-color:#ffffff;stop-opacity:0.25098041;"
         offset="1"
         id="stop10049" />
    </linearGradient>
    <linearGradient
       id="linearGradient10035">
      <stop
         style="stop-color:#808080;stop-opacity:0.25098041;"
         offset="0"
         id="stop10037" />
      <stop
         id="stop10043"
         offset="0.5"
         style="stop-color:#808080;stop-opacity:0.25098041;" />
      <stop
         style="stop-color:#ffffff;stop-opacity:0.25098041;"
         offset="1"
         id="stop10039" />
    </linearGradient>
    <linearGradient
       id="linearGradient10025">
      <stop
         style="stop-color:#808080;stop-opacity:0.25098041;"
         offset="0"
         id="stop10027" />
      <stop
         id="stop10033"
         offset="0.5"
         style="stop-color:#808080;stop-opacity:0.25098041;" />
      <stop
         style="stop-color:#ffffff;stop-opacity:0.25098041;"
         offset="1"
         id="stop10029" />
    </linearGradient>
    <linearGradient
       id="linearGradient10015">
      <stop
         style="stop-color:#808080;stop-opacity:0.25098041;"
         offset="0"
         id="stop10017" />
      <stop
         id="stop10023"
         offset="0.5"
         style="stop-color:#808080;stop-opacity:0.25098041;" />
      <stop
         style="stop-color:#ffffff;stop-opacity:0.25098041;"
         offset="1"
         id="stop10019" />
    </linearGradient>
    <radialGradient
       inkscape:collect="always"
       xlink:href="#linearGradient10055"
       id="radialGradient4523"
       gradientUnits="userSpaceOnUse"
       gradientTransform="matrix(1,0,0,0.98605054,0,6.7912229)"
       cx="387.06897"
       cy="486.84494"
       fx="387.06897"
       fy="486.84494"
       r="185.39767" />
    <linearGradient
       inkscape:collect="always"
       xlink:href="#linearGradient10035"
       id="linearGradient3038"
       gradientUnits="userSpaceOnUse"
       x1="452.16629"
       y1="951.78784"
       x2="452.75394"
       y2="793.49377" />
    <linearGradient
       inkscape:collect="always"
       xlink:href="#linearGradient10025"
       id="linearGradient3041"
       gradientUnits="userSpaceOnUse"
       x1="50.417984"
       y1="952.60608"
       x2="51.005589"
       y2="793.64124" />
    <linearGradient
       inkscape:collect="always"
       xlink:href="#linearGradient10015"
       id="linearGradient3049"
       gradientUnits="userSpaceOnUse"
       x1="16.11409"
       y1="906.2298"
       x2="16.748371"
       y2="844.52191" />
    <linearGradient
       inkscape:collect="always"
       xlink:href="#linearGradient10045"
       id="linearGradient3052"
       gradientUnits="userSpaceOnUse"
       x1="485.93457"
       y1="905.59369"
       x2="485.89813"
       y2="844.55652" />
    <linearGradient
       inkscape:collect="always"
       xlink:href="#linearGradient10035"
       id="linearGradient4403"
       gradientUnits="userSpaceOnUse"
       x1="452.16629"
       y1="951.78784"
       x2="452.75394"
       y2="793.49377"
       gradientTransform="matrix(1.0016913,0,0,1,-0.42281371,-50)" />
    <linearGradient
       inkscape:collect="always"
       xlink:href="#linearGradient10025"
       id="linearGradient4406"
       gradientUnits="userSpaceOnUse"
       x1="50.417984"
       y1="952.60608"
       x2="51.005589"
       y2="793.64124"
       gradientTransform="matrix(1.0016913,0,0,1,-0.42281371,-50)" />
    <linearGradient
       inkscape:collect="always"
       xlink:href="#linearGradient10015"
       id="linearGradient4414"
       gradientUnits="userSpaceOnUse"
       x1="16.11409"
       y1="906.2298"
       x2="16.748371"
       y2="844.52191"
       gradientTransform="matrix(1.0016913,0,0,1,-0.42281371,-50)" />
    <linearGradient
       inkscape:collect="always"
       xlink:href="#linearGradient10045"
       id="linearGradient4417"
       gradientUnits="userSpaceOnUse"
       x1="485.93457"
       y1="905.59369"
       x2="485.89813"
       y2="844.55652"
       gradientTransform="matrix(1.0016913,0,0,1,-0.42281371,-50)" />
  </defs>
  <sodipodi:namedview
     id="base"
     pagecolor="#ffffff"
     bordercolor="#666666"
     borderopacity="1.0"
     gridtolerance="10000"
     guidetolerance="10"
     objecttolerance="10"
     inkscape:pageopacity="0.0"
     inkscape:pageshadow="2"
     inkscape:zoom="1.4908955"
     inkscape:cx="144.77615"
     inkscape:cy="233.42574"
     inkscape:document-units="px"
     inkscape:current-layer="layer1"
     showgrid="false"
     inkscape:window-width="1920"
     inkscape:window-height="1018"
     inkscape:window-x="-8"
     inkscape:window-y="-8"
     showguides="true"
     inkscape:window-maximized="1"
     fit-margin-top="0"
     fit-margin-left="0"
     fit-margin-right="0"
     fit-margin-bottom="0">
    <inkscape:grid
       type="xygrid"
       id="grid3305"
       visible="true"
       enabled="true"
       empspacing="5"
       snapvisiblegridlinesonly="true" />
  </sodipodi:namedview>
  <metadata
     id="metadata7">
    <rdf:RDF>
      <cc:Work
         rdf:about="">
        <dc:format>image/svg+xml</dc:format>
        <dc:type
           rdf:resource="http://purl.org/dc/dcmitype/StillImage" />
        <dc:title></dc:title>
      </cc:Work>
    </rdf:RDF>
  </metadata>
  <g
     inkscape:label="Layer 1"
     inkscape:groupmode="layer"
     id="layer1"
     transform="translate(-1.6118717,-553.7015)">
    <path
       inkscape:connector-curvature="0"
       style="fill:url(#linearGradient4417);fill-opacity:1;fill-rule:evenodd;stroke:#000000;stroke-width:7.88225030999999990;stroke-linecap:butt;stroke-linejoin:bevel;stroke-miterlimit:4;stroke-opacity:0.25098041;stroke-dasharray:none"
       d="m 475.13881,798.43198 c 10.6477,0 19.30753,12.07857 19.30753,26.97849 0,14.89992 -8.65983,26.97851 -19.30753,26.97848 -0.33275,0 -0.65704,-0.007 -0.98568,-0.0299 l 0,-53.89708 c 0.32864,-0.0234 0.65293,-0.0299 0.98568,-0.0299 z"
       id="path3226" />
    <path
       inkscape:connector-curvature="0"
       style="fill:url(#linearGradient4414);fill-opacity:1;fill-rule:evenodd;stroke:#000000;stroke-width:7.88225030999999990;stroke-linecap:butt;stroke-linejoin:bevel;stroke-miterlimit:4;stroke-opacity:0.25098041;stroke-dasharray:none"
       d="m 24.861195,798.39734 c -10.647708,0 -19.3075258,12.07856 -19.3075258,26.97848 0,14.89993 8.6598178,26.97852 19.3075258,26.97849 0.33275,0 0.657051,-0.007 0.985677,-0.0299 l 0,-53.89709 c -0.328626,-0.0234 -0.652927,-0.0299 -0.985677,-0.0299 z"
       id="path2435" />
    <path
       sodipodi:type="arc"
       style="fill:url(#radialGradient4523);fill-opacity:1;fill-rule:evenodd;stroke:#000000;stroke-width:10.45051192999999900;stroke-linecap:butt;stroke-linejoin:miter;stroke-miterlimit:4;stroke-opacity:0.25098041;stroke-dasharray:none"
       id="path2393"
       sodipodi:cx="387.06897"
       sodipodi:cy="486.84494"
       sodipodi:rx="180.17241"
       sodipodi:ry="177.58621"
       d="m 567.24138,486.84494 a 180.17241,177.58621 0 1 1 -360.34482,0 180.17241,177.58621 0 1 1 360.34482,0 z"
       transform="matrix(0.92768933,0,0,0.95817039,-108.29121,358.83668)" />
    <path
       sodipodi:type="spiral"
       style="fill:none;stroke:#000000;stroke-width:7.24298525000000030;stroke-linecap:round;stroke-linejoin:miter;stroke-miterlimit:4;stroke-opacity:0.25098041;stroke-dasharray:none"
       id="path3165"
       sodipodi:cx="325.86206"
       sodipodi:cy="421.3277"
       sodipodi:expansion="1"
       sodipodi:revolution="3"
       sodipodi:radius="35.376354"
       sodipodi:argument="-18.098627"
       sodipodi:t0="0.058259577"
       d="m 325.29586,423.30941 c -2.16629,1.07421 -4.0964,-1.44499 -4.25011,-3.3578 -0.30674,-3.81701 3.5004,-6.43838 7.00229,-6.27483 5.36671,0.25065 8.84778,5.58398 8.29954,10.64678 -0.74804,6.90779 -7.67569,11.28112 -14.29127,10.32425 -8.4484,-1.22197 -13.72584,-9.77058 -12.34897,-17.93575 1.68452,-9.98954 11.8671,-16.17686 21.58024,-14.37368 11.53126,2.1407 18.63175,13.9646 16.3984,25.22472 -2.593,13.07342 -16.06273,21.08916 -28.86921,18.42312 -14.61593,-3.04274 -23.54832,-18.16131 -20.44783,-32.5137 3.4907,-16.15871 20.26021,-26.00874 36.15818,-22.47254 17.70171,3.9374 28.4701,22.35935 24.49726,39.80267 -1.22549,5.38072 -3.75497,10.43613 -7.30024,14.66297"
       transform="matrix(0.90463959,0,0,1.3091507,11.250089,234.15852)" />
    <path
       sodipodi:type="spiral"
       style="fill:none;stroke:#000000;stroke-width:7.41117191000000020;stroke-linecap:round;stroke-linejoin:miter;stroke-miterlimit:4;stroke-opacity:0.25098041;stroke-dasharray:none"
       id="path3167"
       sodipodi:cx="325.86206"
       sodipodi:cy="421.3277"
       sodipodi:expansion="1"
       sodipodi:revolution="3"
       sodipodi:radius="35.376354"
       sodipodi:argument="-18.098627"
       sodipodi:t0="0.058259577"
       d="m 325.29586,423.30941 c -2.16629,1.07421 -4.0964,-1.44499 -4.25011,-3.3578 -0.30674,-3.81701 3.5004,-6.43838 7.00229,-6.27483 5.36671,0.25065 8.84778,5.58398 8.29954,10.64678 -0.74804,6.90779 -7.67569,11.28112 -14.29127,10.32425 -8.4484,-1.22197 -13.72584,-9.77058 -12.34897,-17.93575 1.68452,-9.98954 11.8671,-16.17686 21.58024,-14.37368 11.53126,2.1407 18.63175,13.9646 16.3984,25.22472 -2.593,13.07342 -16.06273,21.08916 -28.86921,18.42312 -14.61593,-3.04274 -23.54832,-18.16131 -20.44783,-32.5137 3.4907,-16.15871 20.26021,-26.00874 36.15818,-22.47254 17.70171,3.9374 28.4701,22.35935 24.49726,39.80267 -1.22549,5.38072 -3.75497,10.43613 -7.30024,14.66297"
       transform="matrix(-0.90855319,0,0,1.2450199,489.54231,260.22549)" />
    <path
       inkscape:connector-curvature="0"
       style="fill:none;stroke:#000000;stroke-width:9.85281276999999990;stroke-linecap:round;stroke-linejoin:miter;stroke-miterlimit:4;stroke-opacity:0.25098041;stroke-dasharray:none"
       d="m 176.41346,898.00587 c 79.97321,59.47263 155.14805,-9.91212 155.14805,-9.91212"
       id="path3225" />
    <path
       inkscape:connector-curvature="0"
       style="fill:none;stroke:#000000;stroke-width:9.85281276999999990;stroke-linecap:butt;stroke-linejoin:bevel;stroke-miterlimit:4;stroke-opacity:0.25098041;stroke-dasharray:none"
       d="m 70.352053,748.84178 c -5.39e-4,-0.14097 -8.19e-4,-0.28201 -8.19e-4,-0.42308 9e-6,-76.8447 80.879316,-139.21139 180.534186,-139.21139 99.65484,10e-6 180.53415,62.3667 180.53415,139.21139 l 0,2e-5 c 0,0.14106 -2.8e-4,0.2821 -8.2e-4,0.42307"
       id="path2405" />
    <path
       inkscape:connector-curvature="0"
       style="fill:url(#linearGradient4406);fill-opacity:1;stroke:#000000;stroke-width:7.88225030999999990;stroke-linecap:round;stroke-linejoin:bevel;stroke-miterlimit:4;stroke-opacity:0.25098041;stroke-dasharray:none"
       d="M 60.381487,748.09294 C 44.168395,753.6701 30.86199,770.65046 24.46252,793.06707 l 0,60.39467 c 6.559902,22.97854 20.37014,40.23629 37.136562,45.36338 l 16.031625,0 0,-150.73218 -17.24922,0 z"
       id="rect3299" />
    <path
       inkscape:connector-curvature="0"
       style="fill:url(#linearGradient4403);fill-opacity:1;stroke:#000000;stroke-width:7.88225030999999990;stroke-linecap:round;stroke-linejoin:bevel;stroke-miterlimit:4;stroke-opacity:0.25098041;stroke-dasharray:none"
       d="m 440.10829,747.27471 c 16.21309,5.57716 29.51949,22.55752 35.91898,44.97413 l 0,60.39467 c -6.55991,22.97854 -20.37015,40.23629 -37.13658,45.36338 l -16.03162,0 0,-150.73218 17.24922,0 z"
       id="path2398" />
  </g>
</svg>
